# Blender v2.83.0 OBJ File: 'Flower1.blend'
# www.blender.org
mtllib Flower Side2.mtl
v -1.145458 -0.901187 0.655808
v -1.903833 0.300628 -0.880179
v -1.355631 -1.324057 0.152289
v -2.075185 -0.044135 -1.290694
v 1.131273 -0.815381 -0.366578
v 0.411686 0.387896 -1.919983
v 0.921101 -1.238250 -0.870097
v 0.240334 0.043133 -2.330498
v -0.414619 -1.678231 -0.831713
v -1.134190 -0.436632 -2.329907
v -0.204446 -1.255362 -0.328194
v -0.924017 -0.013763 -1.826388
v -1.172785 0.942675 -2.300092
v -1.382957 0.519806 -2.803610
v -1.983863 0.275490 -2.260236
v -0.353639 0.751879 -2.394404
v -1.773691 0.698359 -1.756717
v -0.563811 0.329010 -2.897923
vt 0.375000 0.000000
vt 0.625000 0.000000
vt 0.625000 0.250000
vt 0.375000 0.250000
vt 0.375000 0.375000
vt 0.625000 0.375000
vt 0.625000 0.500000
vt 0.375000 0.500000
vt 0.625000 0.750000
vt 0.375000 0.750000
vt 0.375000 0.875000
vt 0.625000 0.875000
vt 0.625000 1.000000
vt 0.375000 1.000000
vt 0.250000 0.500000
vt 0.250000 0.750000
vt 0.625000 0.250000
vt 0.625000 0.000000
vt 0.625000 0.000000
vt 0.625000 0.250000
vt 0.625000 0.312500
vt 0.625000 0.375000
vt 0.125000 0.500000
vt 0.125000 0.750000
vt 0.625000 1.000000
vt 0.625000 1.000000
vt 0.625000 0.500000
vt 0.625000 0.500000
vt 0.625000 0.750000
vt 0.625000 0.750000
vt 0.625000 0.812500
vt 0.625000 0.875000
vn -0.0097 0.1026 0.9947
vn -0.4095 0.6953 0.5906
vn -0.9758 -0.2086 -0.0657
vn -0.5412 -0.7478 0.3844
vn -0.0172 -0.9924 -0.1216
vn -0.2561 -0.7317 -0.6317
vn 0.6104 -0.1489 -0.7779
vn 0.6924 -0.7013 -0.1695
vn 0.6687 0.7359 0.1065
vn 0.7425 0.1310 0.6568
vn 0.4089 -0.1720 0.8962
vn 0.2606 0.7220 0.6409
vn -0.8887 0.0127 -0.4583
vn -0.3481 0.9009 0.2591
vn -0.0411 0.9991 -0.0076
vn -0.4078 0.1978 -0.8914
vn 0.2457 0.0554 -0.9677
vn 0.3676 0.9279 -0.0623
usemtl None
s 1
f 1/1/1 2/2/2 4/3/3 3/4/4
f 9/5/5 10/6/6 8/7/7 7/8/8
f 7/8/8 8/7/7 6/9/9 5/10/10
f 11/11/11 12/12/12 2/13/2 1/14/1
f 9/15/5 7/8/8 5/10/10 11/16/11
f 15/17/13 17/18/14 13/19/15 14/20/16
f 10/6/6 4/3/3 15/21/13 14/22/16
f 3/23/4 9/15/5 11/16/11 1/24/1
f 5/10/10 6/9/9 12/12/12 11/11/11
f 3/4/4 4/3/3 10/6/6 9/5/5
f 2/13/2 12/12/12 13/25/15 17/26/14
f 8/7/7 10/6/6 14/27/16 18/28/17
f 16/29/18 18/28/17 14/27/16 13/30/15
f 12/12/12 6/9/9 16/31/18 13/32/15
f 6/9/9 8/7/7 18/28/17 16/29/18
f 4/3/3 2/2/2 17/18/14 15/17/13
v 0.312748 -0.239874 0.705951
v -2.015196 0.321236 1.190708
v 0.005548 -0.857560 0.730731
v -2.322397 -0.296450 1.215487
v 0.127945 -0.209228 -0.821214
v -2.245729 0.359466 -0.714352
v -0.179256 -0.826913 -0.796435
v -2.552930 -0.258220 -0.689573
v -0.375319 -1.422249 -0.009584
v -2.726128 -0.857347 0.286225
v -0.068118 -0.804564 -0.034363
v -2.418927 -0.239662 0.261446
v -3.486289 0.480930 0.405068
v -3.793490 -0.136756 0.429848
v -3.219130 -0.235509 1.030478
v -2.956221 0.439105 -0.308221
v -2.798332 0.418855 0.996536
v -3.377019 -0.215259 -0.274279
vt 0.375000 0.000000
vt 0.625000 0.000000
vt 0.625000 0.250000
vt 0.375000 0.250000
vt 0.375000 0.375000
vt 0.625000 0.375000
vt 0.625000 0.500000
vt 0.375000 0.500000
vt 0.625000 0.750000
vt 0.375000 0.750000
vt 0.375000 0.875000
vt 0.625000 0.875000
vt 0.625000 1.000000
vt 0.375000 1.000000
vt 0.250000 0.500000
vt 0.250000 0.750000
vt 0.625000 0.250000
vt 0.625000 0.000000
vt 0.625000 0.000000
vt 0.625000 0.250000
vt 0.625000 0.312500
vt 0.625000 0.375000
vt 0.125000 0.500000
vt 0.125000 0.750000
vt 0.625000 1.000000
vt 0.625000 1.000000
vt 0.625000 0.500000
vt 0.625000 0.500000
vt 0.625000 0.750000
vt 0.625000 0.750000
vt 0.625000 0.812500
vt 0.625000 0.875000
vn 0.8231 0.5139 0.2416
vn 0.2292 0.8175 0.5283
vn -0.1292 -0.3849 0.9139
vn 0.5567 -0.5794 0.5953
vn 0.2681 -0.9620 -0.0517
vn -0.3295 -0.9439 0.0202
vn -0.3544 -0.3406 -0.8708
vn 0.3959 -0.5527 -0.7333
vn 0.0886 0.8413 -0.5332
vn 0.7442 0.5270 -0.4104
vn 0.9821 0.1484 -0.1158
vn 0.3536 0.9351 -0.0223
vn -0.5079 -0.2837 0.8134
vn -0.0626 0.8954 0.4408
vn -0.5089 0.8581 0.0689
vn -0.9775 -0.1814 0.1078
vn -0.6870 -0.2541 -0.6807
vn -0.1585 0.9197 -0.3592
usemtl None
s 1
f 19/33/19 20/34/20 22/35/21 21/36/22
f 27/37/23 28/38/24 26/39/25 25/40/26
f 25/40/26 26/39/25 24/41/27 23/42/28
f 29/43/29 30/44/30 20/45/20 19/46/19
f 27/47/23 25/40/26 23/42/28 29/48/29
f 33/49/31 35/50/32 31/51/33 32/52/34
f 28/38/24 22/35/21 33/53/31 32/54/34
f 21/55/22 27/47/23 29/48/29 19/56/19
f 23/42/28 24/41/27 30/44/30 29/43/29
f 21/36/22 22/35/21 28/38/24 27/37/23
f 20/45/20 30/44/30 31/57/33 35/58/32
f 26/39/25 28/38/24 32/59/34 36/60/35
f 34/61/36 36/60/35 32/59/34 31/62/33
f 30/44/30 24/41/27 34/63/36 31/64/33
f 24/41/27 26/39/25 36/60/35 34/61/36
f 22/35/21 20/34/20 35/50/32 33/49/31
v 0.232613 -0.256761 -0.484297
v 2.070017 0.447974 0.215286
v 0.592740 -0.821497 -0.317253
v 2.430144 -0.116763 0.382330
v -0.660745 -0.314156 1.247642
v 0.955599 0.376377 2.375789
v -0.300619 -0.878893 1.414685
v 1.315725 -0.188360 2.542833
v 0.484222 -1.380488 0.705571
v 2.211097 -0.682854 1.619437
v 0.124096 -0.815751 0.538528
v 1.850970 -0.118118 1.452393
v 2.544797 0.638844 1.835364
v 2.904924 0.074107 2.002408
v 2.855369 -0.021328 1.005379
v 1.562363 0.507610 2.292567
v 2.347762 0.543409 0.769927
v 2.069969 -0.057126 2.528018
vt 0.375000 0.000000
vt 0.625000 0.000000
vt 0.625000 0.250000
vt 0.375000 0.250000
vt 0.375000 0.375000
vt 0.625000 0.375000
vt 0.625000 0.500000
vt 0.375000 0.500000
vt 0.625000 0.750000
vt 0.375000 0.750000
vt 0.375000 0.875000
vt 0.625000 0.875000
vt 0.625000 1.000000
vt 0.375000 1.000000
vt 0.250000 0.500000
vt 0.250000 0.750000
vt 0.625000 0.250000
vt 0.625000 0.000000
vt 0.625000 0.000000
vt 0.625000 0.250000
vt 0.625000 0.312500
vt 0.625000 0.375000
vt 0.125000 0.500000
vt 0.125000 0.750000
vt 0.625000 1.000000
vt 0.625000 1.000000
vt 0.625000 0.500000
vt 0.625000 0.500000
vt 0.625000 0.750000
vt 0.625000 0.750000
vt 0.625000 0.812500
vt 0.625000 0.875000
vn -0.6042 0.3968 -0.6910
vn 0.0886 0.8002 -0.5931
vn 0.7302 -0.2748 -0.6255
vn -0.0391 -0.6396 -0.7677
vn -0.1400 -0.9846 -0.1048
vn 0.4181 -0.8885 0.1886
vn -0.0797 -0.3318 0.9399
vn -0.6304 -0.6776 0.3787
vn -0.4564 0.7634 0.4570
vn -0.9237 0.3763 -0.0715
vn -0.8868 0.0829 -0.4547
vn -0.4479 0.8706 -0.2035
vn 0.9586 -0.1140 -0.2610
vn 0.1280 0.9626 -0.2385
vn 0.2801 0.9445 0.1712
vn 0.8889 -0.0504 0.4554
vn 0.3476 -0.1469 0.9261
vn -0.1502 0.9442 0.2931
usemtl None
s 1
f 37/65/37 38/66/38 40/67/39 39/68/40
f 45/69/41 46/70/42 44/71/43 43/72/44
f 43/72/44 44/71/43 42/73/45 41/74/46
f 47/75/47 48/76/48 38/77/38 37/78/37
f 45/79/41 43/72/44 41/74/46 47/80/47
f 51/81/49 53/82/50 49/83/51 50/84/52
f 46/70/42 40/67/39 51/85/49 50/86/52
f 39/87/40 45/79/41 47/80/47 37/88/37
f 41/74/46 42/73/45 48/76/48 47/75/47
f 39/68/40 40/67/39 46/70/42 45/69/41
f 38/77/38 48/76/48 49/89/51 53/90/50
f 44/71/43 46/70/42 50/91/52 54/92/53
f 52/93/54 54/92/53 50/91/52 49/94/51
f 48/76/48 42/73/45 52/95/54 49/96/51
f 42/73/45 44/71/43 54/92/53 52/93/54
f 40/67/39 38/66/38 53/82/50 51/81/49
v 0.499442 -0.790542 1.066649
v -0.311054 0.313561 2.130380
v 0.245023 -1.087804 1.361597
v -0.565473 0.016299 2.425329
v -0.313238 -0.818371 0.337595
v -1.324829 0.278846 1.220924
v -0.567656 -1.115633 0.632544
v -1.579248 -0.018416 1.515872
v -0.400219 -1.380850 1.274030
v -1.311262 -0.280191 2.247560
v -0.145800 -1.083588 0.979081
v -1.056843 0.017071 1.952612
v -1.379643 0.812855 2.282063
v -1.634062 0.515593 2.577011
v -1.046387 0.265946 2.659677
v -1.405616 0.545850 1.592986
v -0.684383 0.563208 2.240004
v -1.767621 0.248588 2.012659
vt 0.375000 0.000000
vt 0.625000 0.000000
vt 0.625000 0.250000
vt 0.375000 0.250000
vt 0.375000 0.375000
vt 0.625000 0.375000
vt 0.625000 0.500000
vt 0.375000 0.500000
vt 0.625000 0.750000
vt 0.375000 0.750000
vt 0.375000 0.875000
vt 0.625000 0.875000
vt 0.625000 1.000000
vt 0.375000 1.000000
vt 0.250000 0.500000
vt 0.250000 0.750000
vt 0.625000 0.250000
vt 0.625000 0.000000
vt 0.625000 0.000000
vt 0.625000 0.250000
vt 0.625000 0.312500
vt 0.625000 0.375000
vt 0.125000 0.500000
vt 0.125000 0.750000
vt 0.625000 1.000000
vt 0.625000 1.000000
vt 0.625000 0.500000
vt 0.625000 0.500000
vt 0.625000 0.750000
vt 0.625000 0.750000
vt 0.625000 0.812500
vt 0.625000 0.875000
vn 0.8677 0.1284 -0.4801
vn 0.7215 0.6919 -0.0245
vn 0.4218 -0.1790 0.8888
vn 0.6335 -0.7030 0.3232
vn -0.1011 -0.9834 0.1503
vn -0.4621 -0.7037 0.5396
vn -0.9210 -0.2282 -0.3157
vn -0.3625 -0.7371 -0.5704
vn -0.0785 0.6624 -0.7450
vn 0.3789 0.1116 -0.9186
vn 0.6422 -0.3024 -0.7043
vn 0.4891 0.6603 -0.5698
vn 0.1350 0.0278 0.9904
vn 0.4846 0.8712 -0.0782
vn -0.0663 0.9969 0.0408
vn -0.6431 0.2910 0.7083
vn -0.9996 -0.0074 -0.0273
vn -0.0107 0.8531 -0.5216
usemtl None
s 1
f 55/97/55 56/98/56 58/99/57 57/100/58
f 63/101/59 64/102/60 62/103/61 61/104/62
f 61/104/62 62/103/61 60/105/63 59/106/64
f 65/107/65 66/108/66 56/109/56 55/110/55
f 63/111/59 61/104/62 59/106/64 65/112/65
f 69/113/67 71/114/68 67/115/69 68/116/70
f 64/102/60 58/99/57 69/117/67 68/118/70
f 57/119/58 63/111/59 65/112/65 55/120/55
f 59/106/64 60/105/63 66/108/66 65/107/65
f 57/100/58 58/99/57 64/102/60 63/101/59
f 56/109/56 66/108/66 67/121/69 71/122/68
f 62/103/61 64/102/60 68/123/70 72/124/71
f 70/125/72 72/124/71 68/123/70 67/126/69
f 66/108/66 60/105/63 70/127/72 67/128/69
f 60/105/63 62/103/61 72/124/71 70/125/72
f 58/99/57 56/98/56 71/114/68 69/113/67
v -0.680748 -0.732500 -0.161956
v 0.756711 -0.035075 -2.010325
v -0.435469 -1.331067 -0.402949
v 1.001990 -0.633642 -2.251318
v 0.444680 -0.693442 0.886478
v 2.160624 0.013647 -0.702459
v 0.689959 -1.292009 0.645484
v 2.405903 -0.584919 -0.943453
v 0.357565 -1.873598 -0.105028
v 1.934266 -1.171340 -1.823681
v 0.112285 -1.275031 0.135966
v 1.688987 -0.572774 -1.582687
v 2.378538 0.209398 -2.352017
v 2.623817 -0.389169 -2.593010
v 1.657040 -0.507296 -2.702028
v 2.425444 0.107413 -1.247375
v 1.271368 0.079655 -2.321514
v 2.811117 -0.479539 -1.627888
vt 0.375000 0.000000
vt 0.625000 0.000000
vt 0.625000 0.250000
vt 0.375000 0.250000
vt 0.375000 0.375000
vt 0.625000 0.375000
vt 0.625000 0.500000
vt 0.375000 0.500000
vt 0.625000 0.750000
vt 0.375000 0.750000
vt 0.375000 0.875000
vt 0.625000 0.875000
vt 0.625000 1.000000
vt 0.375000 1.000000
vt 0.250000 0.500000
vt 0.250000 0.750000
vt 0.625000 0.250000
vt 0.625000 0.000000
vt 0.625000 0.000000
vt 0.625000 0.250000
vt 0.625000 0.312500
vt 0.625000 0.375000
vt 0.125000 0.500000
vt 0.125000 0.750000
vt 0.625000 1.000000
vt 0.625000 1.000000
vt 0.625000 0.500000
vt 0.625000 0.500000
vt 0.625000 0.750000
vt 0.625000 0.750000
vt 0.625000 0.812500
vt 0.625000 0.875000
vn -0.8061 0.4651 0.3659
vn -0.5807 0.7932 -0.1831
vn -0.4939 -0.4001 -0.7719
vn -0.7834 -0.6101 -0.1185
vn -0.1289 -0.9761 0.1747
vn 0.2754 -0.9241 -0.2648
vn 0.8198 -0.3512 0.4522
vn 0.1957 -0.5761 0.7936
vn 0.1946 0.8217 0.5357
vn -0.3256 0.4818 0.8135
vn -0.6805 0.0903 0.7271
vn -0.2927 0.9137 0.2817
vn -0.1481 -0.2277 -0.9624
vn -0.3584 0.8756 -0.3238
vn 0.2817 0.9000 -0.3325
vn 0.6797 -0.1144 -0.7245
vn 0.9773 -0.1925 0.0884
vn 0.3144 0.9006 0.3001
usemtl None
s 1
f 73/129/73 74/130/74 76/131/75 75/132/76
f 81/133/77 82/134/78 80/135/79 79/136/80
f 79/136/80 80/135/79 78/137/81 77/138/82
f 83/139/83 84/140/84 74/141/74 73/142/73
f 81/143/77 79/136/80 77/138/82 83/144/83
f 87/145/85 89/146/86 85/147/87 86/148/88
f 82/134/78 76/131/75 87/149/85 86/150/88
f 75/151/76 81/143/77 83/144/83 73/152/73
f 77/138/82 78/137/81 84/140/84 83/139/83
f 75/132/76 76/131/75 82/134/78 81/133/77
f 74/141/74 84/140/84 85/153/87 89/154/86
f 80/135/79 82/134/78 86/155/88 90/156/89
f 88/157/90 90/156/89 86/155/88 85/158/87
f 84/140/84 78/137/81 88/159/90 85/160/87
f 78/137/81 80/135/79 90/156/89 88/157/90
f 76/131/75 74/130/74 89/146/86 87/145/85
